<svg xmlns="http://www.w3.org/2000/svg" width="440" height="198" viewBox="0 0 440 198">
  <defs>
    <style>
      .bg { fill: #0d1117; }
      .title { fill: #39ff14; font-family: "JetBrains Mono",monospace; font-size: 16px; font-weight: bold; }
      .label { fill: #8b949e; font-family: "JetBrains Mono",monospace; font-size: 13px; }
      .value { fill: #39ff14; font-family: "JetBrains Mono",monospace; font-size: 20px; font-weight: bold; }
      .icon { fill: #39ff14; }
    </style>
  </defs>
  <rect class="bg" width="100%" height="100%" rx="10" ry="10"/>
  <text x="20" y="32" class="title">▍ top languages</text>
  <line x1="20" y1="44" x2="420" y2="44" stroke="#163024" stroke-width="1"/>
  <text x="20" y="70" class="label">Python</text>
  <rect x="120" y="58" width="240" height="14" fill="#163024" rx="3"/>
  <rect x="120" y="58" width="74" height="14" fill="#39ff14" rx="3"/>
  <text x="370" y="70" class="value" font-size="14">31%</text>
  <text x="20" y="102" class="label">TypeScript</text>
  <rect x="120" y="90" width="240" height="14" fill="#163024" rx="3"/>
  <rect x="120" y="90" width="74" height="14" fill="#39ff14" rx="3"/>
  <text x="370" y="102" class="value" font-size="14">31%</text>
  <text x="20" y="134" class="label">JavaScript</text>
  <rect x="120" y="122" width="240" height="14" fill="#163024" rx="3"/>
  <rect x="120" y="122" width="74" height="14" fill="#39ff14" rx="3"/>
  <text x="370" y="134" class="value" font-size="14">31%</text>
  <text x="20" y="166" class="label">HTML</text>
  <rect x="120" y="154" width="240" height="14" fill="#163024" rx="3"/>
  <rect x="120" y="154" width="14" height="14" fill="#39ff14" rx="3"/>
  <text x="370" y="166" class="value" font-size="14">6%</text>
</svg>